<svg width="15" height="15" viewBox="0 0 14 15" fill="none" xmlns="http://www.w3.org/2000/svg">
<g clip-path="url(#clip0_85_10)">
<path d="M7.92907 10.5797L13.968 4.14591C13.9838 4.13388 13.9946 4.11651 13.9985 4.09707C14.0023 4.07763 13.9989 4.05745 13.9889 4.04033C13.9789 4.02321 13.963 4.01033 13.9442 4.00411C13.9254 3.99789 13.905 3.99875 13.8867 4.00655H0.113253C0.0950305 3.99875 0.0745892 3.99789 0.0557726 4.00411C0.0369559 4.01033 0.0210601 4.02321 0.011074 4.04033C0.001088 4.05745 -0.0023004 4.07763 0.00154573 4.09707C0.00539187 4.11651 0.0162077 4.13388 0.0319596 4.14591L6.07093 10.5797C6.19034 10.7063 6.33434 10.8071 6.4941 10.876C6.65386 10.9449 6.82602 10.9804 7 10.9804C7.17398 10.9804 7.34613 10.9449 7.5059 10.876C7.66566 10.8071 7.80966 10.7063 7.92907 10.5797V10.5797Z" fill="#FF06B5"/>
</g>
<defs>
<clipPath id="clip0_85_10">
<rect width="14" height="14" fill="white" transform="translate(0 0.5)"/>
</clipPath>
</defs>
</svg>
