<svg xmlns="http://www.w3.org/2000/svg" width="32" height="32" viewBox="0 0 32 16" id="speed" fill="white" style="vertical-align: middle; margin-top: -0.2rem;">
    <path d="m15.555 11.168-6-4A.998.998 0 0 0 8 8v8a1 1 0 0 0 1.555.832l6-4a1.001 1.001 0 0 0 0-1.664zM12 24a12.06 12.06 0 0 1-2.278-.216 1.002 1.002 0 0 1-.794-1.171 1.006 1.006 0 0 1 1.171-.794c.623.12 1.262.181 1.901.181a1 1 0 1 1 0 2zm-6.079-1.831a1 1 0 0 1-.553-.167 12.017 12.017 0 0 1-3.331-3.312.999.999 0 0 1 .271-1.388.997.997 0 0 1 1.388.271 10.017 10.017 0 0 0 2.78 2.763 1 1 0 0 1-.555 1.833zm-4.71-7.012a.998.998 0 0 1-.979-.805 12.092 12.092 0 0 1-.003-4.696.998.998 0 0 1 1.175-.786.998.998 0 0 1 .786 1.175 10.146 10.146 0 0 0 .002 3.917 1 1 0 0 1-.981 1.195zm1.651-8.284a1 1 0 0 1-.829-1.558 11.986 11.986 0 0 1 3.329-3.313.995.995 0 0 1 1.386.278.998.998 0 0 1-.278 1.386 10.014 10.014 0 0 0-2.777 2.765.998.998 0 0 1-.831.442zm7.047-4.675A1 1 0 0 1 9.722.216 12.06 12.06 0 0 1 12 0a1 1 0 1 1 0 2c-.639 0-1.278.061-1.901.181a1.118 1.118 0 0 1-.19.017z"/>
    <path d="M12 24a1 1 0 1 1 0-2c5.514 0 10-4.486 10-10S17.514 2 12 2a1 1 0 1 1 0-2c6.617 0 12 5.383 12 12s-5.383 12-12 12z"/>
</svg>
